<svg width="258" height="118" viewBox="0 0 258 118" fill="none" xmlns="http://www.w3.org/2000/svg">
<path d="M4.61931 27.0232C4.61931 18.2142 1.61139 15.7434 1.61139 13.2726C1.61139 11.6613 2.57822 10.8018 4.61931 10.8018H18.907C21.9149 10.8018 21.9149 13.2726 21.9149 13.2726C21.9149 15.7434 18.907 18.2142 18.907 27.0232V43.5668C30.1867 39.1623 36.7397 27.6677 38.5659 17.0326C38.7808 15.2063 36.9545 13.7023 36.9545 12.6281C36.9545 11.4464 38.1362 10.8018 40.607 10.8018H48.1268C51.7793 10.8018 51.7793 12.6281 51.7793 12.6281C51.7793 14.0246 50.5976 14.5618 49.8456 16.388C46.8377 27.6677 38.0288 39.4846 25.4599 45.2856C41.4664 48.2935 47.0526 72.7866 48.7714 76.9762C50.0605 80.199 52.961 80.6287 52.961 83.5292C52.961 85.4629 51.457 86 49.7382 86H36.2025C34.3763 86 33.5169 84.2812 32.7649 80.4139C31.0461 71.3901 26.7491 49.7975 18.907 49.7975V69.7787C18.907 78.5876 21.9149 81.0584 21.9149 83.5292C21.9149 85.1406 20.9481 86 18.907 86H4.61931C1.61139 86 1.61139 83.5292 1.61139 83.5292C1.61139 81.0584 4.61931 78.5876 4.61931 69.7787V27.0232ZM54.0151 83.5292C54.0151 81.0584 60.4607 78.1579 63.4686 69.7787L81.0864 21.5444L80.6567 20.1479C79.6899 17.0326 77.3265 16.1731 77.3265 13.2726C77.3265 11.6613 78.7231 10.8018 80.4419 10.8018H90.2176C92.0439 10.8018 92.581 12.9504 93.6553 16.2806L111.166 69.7787C113.851 78.1579 117.396 81.0584 117.396 83.5292C117.396 86 114.388 86 114.388 86H100.101C98.0597 86 97.0929 85.1406 97.0929 83.5292C97.0929 81.0584 99.5637 78.2653 96.878 69.7787L93.8701 60.1104C93.4404 58.6064 92.7959 57.4247 90.6473 57.4247H73.3518C71.9552 57.4247 71.2032 58.7138 70.7735 60.0029L67.3359 69.7787C64.7577 77.8356 70.7735 81.0584 70.7735 83.5292C70.7735 86 67.7656 86 67.7656 86H57.023C54.9819 86 54.0151 85.1406 54.0151 83.5292ZM73.5666 52.2683C73.2443 53.1277 73.4592 53.8796 74.3186 53.8796H89.8954C91.3993 53.8796 91.1845 52.3757 90.9696 51.7311L82.9127 27.0232L73.5666 52.2683ZM118.483 13.2726C118.483 11.6613 119.45 10.8018 121.491 10.8018H145.662C157.479 10.8018 166.932 18.8588 166.932 30.3534C166.932 37.5509 163.71 43.9965 158.446 47.9712C164.676 51.194 169.081 57.2099 169.081 64.6222C169.081 76.2242 159.627 86 147.811 86H121.491C118.483 86 118.483 83.5292 118.483 83.5292C118.483 81.0584 121.491 78.5876 121.491 69.7787V27.0232C121.491 18.2142 118.483 15.7434 118.483 13.2726ZM135.779 69.7787C135.779 74.9351 135.564 79.9841 137.605 79.9841H143.513C151.141 79.9841 153.289 70.9604 153.289 64.6222C153.289 58.3915 150.066 51.0866 142.439 51.0866C142.117 51.0866 141.795 51.0866 141.365 51.0866C138.894 51.0866 135.779 51.194 135.779 53.7722V69.7787ZM137.605 16.8177C135.564 16.8177 135.779 21.8667 135.779 27.0232V43.1371C135.779 45.5004 139.002 45.7153 141.15 45.7153C141.687 45.7153 142.117 45.7153 142.439 45.7153C150.066 45.7153 151.141 36.6915 151.141 30.3534C151.141 24.1227 148.992 16.8177 141.365 16.8177H137.605ZM199.91 87.0743C181.217 87.0743 170.153 70.3158 170.153 48.1861C170.153 26.0563 181.217 9.72759 199.91 9.72759C218.602 9.72759 229.667 26.0563 229.667 48.1861C229.667 70.3158 218.602 87.0743 199.91 87.0743ZM185.944 48.1861C185.944 70.3158 193.249 83.5292 199.91 83.5292C206.57 83.5292 213.875 70.3158 213.875 48.1861C213.875 26.0563 206.57 13.2726 199.91 13.2726C193.249 13.2726 185.944 26.0563 185.944 48.1861ZM246.638 64.4074H240.515L237.829 9.29788H249.324L246.638 64.4074ZM236.862 80.199C236.862 77.5492 237.507 75.6871 238.796 74.6129C240.085 73.5386 241.661 73.0015 243.523 73.0015C245.313 73.0015 246.853 73.5386 248.142 74.6129C249.503 75.6871 250.183 77.5492 250.183 80.199C250.183 82.7772 249.503 84.6393 248.142 85.7851C246.853 86.931 245.313 87.504 243.523 87.504C241.661 87.504 240.085 86.931 238.796 85.7851C237.507 84.6393 236.862 82.7772 236.862 80.199Z" fill="#EDEAE1"/>
<path d="M0.770867 112.115V94.2134H2.9511L4.67192 94.2056L4.67971 96.308H2.9511V110.012H4.67192V112.115H0.770867ZM10.6598 97.3202C11.7447 97.3202 12.5856 97.45 13.1826 97.7095C13.7796 97.9691 14.3376 98.3584 14.8567 98.8775L13.2994 100.435C12.7803 99.8119 12.0536 99.5004 11.1192 99.5004C10.1848 99.5004 9.58782 99.7211 9.32826 100.162C9.06871 100.604 9.06871 100.98 9.32826 101.291C9.58782 101.603 10.1848 101.836 11.1192 101.992C12.1055 102.096 13.0009 102.42 13.8055 102.965C14.6101 103.51 15.0124 104.38 15.0124 105.574C15.0124 106.508 14.5816 107.313 13.7199 107.988C12.8633 108.663 11.8641 109 10.7221 109C9.63713 109 8.7313 108.844 8.00455 108.533C7.27781 108.221 6.65489 107.806 6.13579 107.287L7.69309 105.73C8.21219 106.353 9.09467 106.716 10.3405 106.82C11.3787 106.82 12.025 106.599 12.2794 106.158C12.5389 105.717 12.5389 105.275 12.2794 104.834C12.025 104.393 11.3787 104.12 10.3405 104.017C9.40613 103.913 8.54961 103.627 7.77096 103.16C6.99231 102.693 6.60298 101.888 6.60298 100.746C6.60298 99.7133 7.04422 98.8853 7.92669 98.2624C8.81435 97.6343 9.72538 97.3202 10.6598 97.3202ZM16.5152 97.3202H26.6377V99.5004H22.7445V109H20.4085V99.5004H16.5152V97.3202ZM28.2028 97.3202H30.5388V104.094C30.5388 104.977 30.7983 105.626 31.3174 106.041C31.8365 106.456 32.4854 106.664 33.2641 106.664C34.0427 106.664 34.6916 106.456 35.2107 106.041C35.7298 105.626 35.9893 104.977 35.9893 104.094V97.3202H38.3253V104.717C38.3253 105.911 37.8451 106.924 36.8848 107.754C35.9245 108.585 34.7175 109 33.2641 109C31.8106 109 30.6037 108.585 29.6433 107.754C28.683 106.924 28.2028 105.911 28.2028 104.717V97.3202ZM43.1919 106.672H45.3565C47.4278 106.667 48.466 105.496 48.4712 103.16C48.466 100.824 47.4278 99.6562 45.3565 99.6562H43.1919V106.672ZM45.3565 109H40.8559V97.3124H45.3565C48.9903 97.3124 50.8071 99.2616 50.8071 103.16C50.8071 107.053 48.9903 109 45.3565 109ZM53.3144 97.3124H55.6426V109H53.3144V97.3124ZM63.2344 109C61.5733 109 60.1847 108.442 59.0686 107.326C57.9526 106.205 57.3945 104.816 57.3945 103.16C57.3945 101.499 57.9526 100.11 59.0686 98.9943C60.1847 97.8782 61.5733 97.3202 63.2344 97.3202C64.8955 97.3202 66.2841 97.8782 67.4002 98.9943C68.5163 100.11 69.0743 101.499 69.0743 103.16C69.0743 104.821 68.5163 106.21 67.4002 107.326C66.2841 108.442 64.8955 109 63.2344 109ZM63.2422 106.82C64.2752 106.82 65.1162 106.469 65.765 105.769C66.4139 105.068 66.7384 104.198 66.7384 103.16C66.7384 102.122 66.4139 101.252 65.765 100.552C65.1162 99.8508 64.27 99.5004 63.2266 99.5004C62.1936 99.5004 61.3527 99.8508 60.7038 100.552C60.0549 101.252 59.7305 102.122 59.7305 103.16C59.7305 104.198 60.0549 105.068 60.7038 105.769C61.3527 106.469 62.1988 106.82 63.2422 106.82ZM70.6394 112.115V110.012H72.3602V96.308H70.6316L70.6394 94.2056L72.3602 94.2134H74.5405V112.115H70.6394Z" fill="#EDEAE1"/>
</svg>
