<svg width="828" height="289" viewBox="0 0 828 289" fill="none" xmlns="http://www.w3.org/2000/svg">
<path d="M11.3138 65.552C11.3138 43.9769 3.94667 37.9253 3.94667 31.8737C3.94667 27.9271 6.31467 25.8222 11.3138 25.8222H46.3076C53.6747 25.8222 53.6747 31.8737 53.6747 31.8737C53.6747 37.9253 46.3076 43.9769 46.3076 65.552V106.071C73.9342 95.2835 89.984 67.1306 94.4569 41.0826C94.9831 36.6097 90.5102 32.9262 90.5102 30.2951C90.5102 27.4009 93.4045 25.8222 99.456 25.8222H117.874C126.82 25.8222 126.82 30.2951 126.82 30.2951C126.82 33.7155 123.925 35.0311 122.084 39.504C114.716 67.1306 93.1413 96.0729 62.3573 110.281C101.561 117.648 115.243 177.637 119.452 187.899C122.61 195.792 129.714 196.844 129.714 203.948C129.714 208.684 126.03 210 121.82 210H88.6685C84.1956 210 82.0907 205.79 80.2489 196.318C76.0391 174.217 65.5147 121.332 46.3076 121.332V170.27C46.3076 191.845 53.6747 197.897 53.6747 203.948C53.6747 207.895 51.3067 210 46.3076 210H11.3138C3.94667 210 3.94667 203.948 3.94667 203.948C3.94667 197.897 11.3138 191.845 11.3138 170.27V65.552ZM132.296 203.948C132.296 197.897 148.082 190.793 155.449 170.27L198.6 52.1333L197.547 48.7129C195.179 41.0826 189.391 38.9777 189.391 31.8737C189.391 27.9271 192.811 25.8222 197.021 25.8222H220.964C225.437 25.8222 226.752 31.0844 229.384 39.2409L272.271 170.27C278.848 190.793 287.531 197.897 287.531 203.948C287.531 210 280.164 210 280.164 210H245.17C240.171 210 237.803 207.895 237.803 203.948C237.803 197.897 243.855 191.056 237.277 170.27L229.91 146.59C228.857 142.907 227.279 140.012 222.016 140.012H179.656C176.235 140.012 174.393 143.17 173.341 146.327L164.921 170.27C158.607 190.004 173.341 197.897 173.341 203.948C173.341 210 165.974 210 165.974 210H139.663C134.664 210 132.296 207.895 132.296 203.948ZM180.182 127.383C179.392 129.488 179.919 131.33 182.024 131.33H220.175C223.858 131.33 223.332 127.646 222.806 126.068L203.072 65.552L180.182 127.383ZM290.193 31.8737C290.193 27.9271 292.561 25.8222 297.56 25.8222H356.76C385.702 25.8222 408.856 45.5555 408.856 73.7084C408.856 91.3369 400.963 107.124 388.07 116.859C403.331 124.752 414.118 139.486 414.118 157.641C414.118 186.057 390.965 210 362.022 210H297.56C290.193 210 290.193 203.948 290.193 203.948C290.193 197.897 297.56 191.845 297.56 170.27V65.552C297.56 43.9769 290.193 37.9253 290.193 31.8737ZM332.554 170.27C332.554 182.9 332.028 195.266 337.027 195.266H351.498C370.179 195.266 375.441 173.164 375.441 157.641C375.441 142.38 367.548 124.489 348.867 124.489C348.078 124.489 347.288 124.489 346.236 124.489C340.184 124.489 332.554 124.752 332.554 131.067V170.27ZM337.027 40.5564C332.028 40.5564 332.554 52.9226 332.554 65.552V105.019C332.554 110.807 340.447 111.333 345.71 111.333C347.025 111.333 348.078 111.333 348.867 111.333C367.548 111.333 370.179 89.232 370.179 73.7084C370.179 58.448 364.917 40.5564 346.236 40.5564H337.027ZM489.625 212.631C443.844 212.631 416.743 171.586 416.743 117.385C416.743 63.184 443.844 23.1911 489.625 23.1911C535.407 23.1911 562.507 63.184 562.507 117.385C562.507 171.586 535.407 212.631 489.625 212.631ZM455.421 117.385C455.421 171.586 473.312 203.948 489.625 203.948C505.938 203.948 523.83 171.586 523.83 117.385C523.83 63.184 505.938 31.8737 489.625 31.8737C473.312 31.8737 455.421 63.184 455.421 117.385ZM604.074 157.115H589.077L582.499 22.1386H610.652L604.074 157.115ZM580.131 195.792C580.131 189.302 581.71 184.741 584.867 182.11C588.025 179.479 591.884 178.164 596.444 178.164C600.829 178.164 604.601 179.479 607.758 182.11C611.091 184.741 612.757 189.302 612.757 195.792C612.757 202.107 611.091 206.667 607.758 209.474C604.601 212.28 600.829 213.684 596.444 213.684C591.884 213.684 588.025 212.28 584.867 209.474C581.71 206.667 580.131 202.107 580.131 195.792Z" fill="#EDEAE1"/>
<path d="M642.888 217.628V173.784H648.228L652.443 173.765L652.462 178.914H648.228V212.479H652.443V217.628H642.888ZM667.108 181.393C669.765 181.393 671.825 181.711 673.287 182.347C674.749 182.983 676.116 183.936 677.388 185.208L673.573 189.022C672.302 187.496 670.522 186.733 668.233 186.733C665.945 186.733 664.483 187.274 663.847 188.354C663.211 189.435 663.211 190.357 663.847 191.12C664.483 191.883 665.945 192.455 668.233 192.836C670.649 193.09 672.842 193.885 674.813 195.22C676.784 196.555 677.769 198.685 677.769 201.609C677.769 203.897 676.714 205.868 674.603 207.521C672.505 209.174 670.058 210 667.261 210C664.604 210 662.385 209.619 660.605 208.856C658.825 208.093 657.299 207.076 656.028 205.804L659.842 201.99C661.114 203.516 663.275 204.406 666.326 204.66C668.869 204.66 670.452 204.12 671.075 203.039C671.711 201.958 671.711 200.878 671.075 199.797C670.452 198.716 668.869 198.049 666.326 197.795C664.038 197.54 661.94 196.841 660.033 195.697C658.126 194.552 657.172 192.582 657.172 189.785C657.172 187.255 658.253 185.227 660.414 183.701C662.588 182.163 664.82 181.393 667.108 181.393ZM681.45 181.393H706.242V186.733H696.706V210H690.985V186.733H681.45V181.393ZM710.075 181.393H715.797V197.985C715.797 200.147 716.432 201.736 717.704 202.753C718.975 203.77 720.564 204.279 722.471 204.279C724.379 204.279 725.968 203.77 727.239 202.753C728.511 201.736 729.146 200.147 729.146 197.985V181.393H734.868V199.511C734.868 202.435 733.692 204.914 731.339 206.949C728.987 208.983 726.031 210 722.471 210C718.912 210 715.956 208.983 713.603 206.949C711.251 204.914 710.075 202.435 710.075 199.511V181.393ZM746.787 204.298H752.089C757.162 204.285 759.704 201.418 759.717 195.697C759.704 189.975 757.162 187.115 752.089 187.115H746.787V204.298ZM752.089 210H741.066V181.374H752.089C760.989 181.374 765.438 186.148 765.438 195.697C765.438 205.232 760.989 210 752.089 210ZM771.579 181.374H777.282V210H771.579V181.374ZM795.876 210C791.807 210 788.406 208.633 785.673 205.9C782.939 203.153 781.573 199.752 781.573 195.697C781.573 191.628 782.939 188.227 785.673 185.494C788.406 182.76 791.807 181.393 795.876 181.393C799.944 181.393 803.345 182.76 806.079 185.494C808.812 188.227 810.179 191.628 810.179 195.697C810.179 199.765 808.812 203.166 806.079 205.9C803.345 208.633 799.944 210 795.876 210ZM795.895 204.66C798.425 204.66 800.485 203.802 802.074 202.086C803.663 200.369 804.458 198.24 804.458 195.697C804.458 193.154 803.663 191.024 802.074 189.308C800.485 187.592 798.412 186.733 795.857 186.733C793.327 186.733 791.267 187.592 789.678 189.308C788.089 191.024 787.294 193.154 787.294 195.697C787.294 198.24 788.089 200.369 789.678 202.086C791.267 203.802 793.339 204.66 795.895 204.66ZM814.012 217.628V212.479H818.227V178.914H813.993L814.012 173.765L818.227 173.784H823.567V217.628H814.012Z" fill="#EDEAE1"/>
</svg>
